# xmcd
#
# Track frame offsets:
# 150
# 16006
# 34074
# 51668
# 68482
# 91301
# 115010
# 132937
# 159005
# 175980
# 189103
# 205116
#
# Disc length: 3017 seconds
#
#
# Revision: 0
# Processed by: cddbd v1.5.1PL2 Copyright (c) Steve Scherf et al.
# Submitted via: FreeRIP 2.943 
#
DISCID=8e0bc70c
DTITLE=Collin Raye -- Tracks - Tracks
DYEAR=2000
DGENRE=Country
TTITLE0=She's All That
TTITLE1=I Want To Be There
TTITLE2=Completely
TTITLE3=Couldn't Last A Moment
TTITLE4=You Will Always Be Mine
TTITLE5=A Long Way To Go
TTITLE6=Harder Cards
TTITLE7=Landing In Love
TTITLE8=Loving This Way
TTITLE9=You Still Take Me There
TTITLE10=Water And Bridges
TTITLE11=She's Gonna Fly
EXTD=
EXTT0=
EXTT1=
EXTT2=
EXTT3=
EXTT4=
EXTT5=
EXTT6=
EXTT7=
EXTT8=
EXTT9=
EXTT10=
EXTT11=
PLAYORDER=
